<?xml version="1.0" encoding="UTF-8"?>
<svg xmlns="http://www.w3.org/2000/svg" xmlns:xlink="http://www.w3.org/1999/xlink" viewBox="0 0 59 59" width="59px" height="59px">
<g id="surface44068245">
<path style=" stroke:none;fill-rule:nonzero;fill:rgb(91.764706%,89.411765%,92.54902%);fill-opacity:1;" d="M 29.5 59 C 13.207031 59 0 45.792969 0 29.5 C 0 13.207031 13.207031 0 29.5 0 C 45.792969 0 59 13.207031 59 29.5 C 59 45.792969 45.792969 59 29.5 59 Z M 29.5 59 "/>
<path style=" stroke:none;fill-rule:nonzero;fill:rgb(0%,0%,0%);fill-opacity:1;" d="M 29.5 10.324219 C 18.910156 10.324219 10.324219 18.910156 10.324219 29.5 C 10.324219 38.554688 16.601562 46.136719 25.042969 48.148438 C 24.605469 48.042969 24.171875 47.929688 23.746094 47.796875 L 23.746094 43.402344 C 23.746094 43.402344 23.027344 43.640625 22.070312 43.640625 C 19.386719 43.640625 18.273438 41.25 17.996094 40.046875 C 17.824219 39.3125 17.386719 38.621094 16.910156 38.195312 C 16.347656 37.691406 16.082031 37.691406 16.078125 37.515625 C 16.070312 37.15625 16.5625 37.171875 16.796875 37.171875 C 17.996094 37.171875 18.902344 38.445312 19.324219 39.105469 C 20.371094 40.730469 21.492188 41.003906 22.070312 41.003906 C 22.789062 41.003906 23.410156 40.898438 23.835938 40.691406 C 24.035156 39.296875 24.65625 38.058594 25.664062 37.171875 C 21.167969 36.269531 17.996094 33.691406 17.996094 29.5 C 17.996094 27.339844 18.863281 25.355469 20.304688 23.753906 C 20.15625 23.335938 19.914062 22.488281 19.914062 21.109375 C 19.914062 20.199219 19.976562 19.082031 20.390625 17.996094 C 20.390625 17.996094 23.125 18.015625 25.707031 20.457031 C 26.894531 20.109375 28.167969 19.914062 29.5 19.914062 C 30.832031 19.914062 32.105469 20.109375 33.292969 20.457031 C 35.875 18.015625 38.609375 17.996094 38.609375 17.996094 C 39.027344 19.082031 39.085938 20.199219 39.085938 21.109375 C 39.085938 22.597656 38.890625 23.464844 38.769531 23.835938 C 40.167969 25.425781 41.003906 27.378906 41.003906 29.5 C 41.003906 33.691406 37.832031 36.269531 33.335938 37.171875 C 34.535156 38.226562 35.253906 39.761719 35.253906 41.484375 L 35.253906 47.796875 C 34.828125 47.929688 34.394531 48.042969 33.957031 48.148438 C 42.398438 46.136719 48.675781 38.554688 48.675781 29.5 C 48.675781 18.910156 40.089844 10.324219 29.5 10.324219 Z M 30.835938 48.625 C 30.394531 48.65625 29.949219 48.675781 29.5 48.675781 C 29.949219 48.675781 30.394531 48.652344 30.835938 48.625 Z M 33.765625 48.191406 C 32.910156 48.386719 32.027344 48.523438 31.128906 48.601562 C 32.027344 48.523438 32.910156 48.386719 33.765625 48.191406 Z M 29.5 48.675781 C 29.050781 48.675781 28.605469 48.65625 28.164062 48.625 C 28.605469 48.652344 29.050781 48.675781 29.5 48.675781 Z M 27.867188 48.601562 C 26.972656 48.523438 26.089844 48.386719 25.234375 48.191406 C 26.089844 48.386719 26.972656 48.523438 27.867188 48.601562 Z M 27.867188 48.601562 "/>
</g>
</svg>
